<svg width="295" height="256" viewBox="0 0 295 256" fill="none" xmlns="http://www.w3.org/2000/svg">
<path opacity="0.9" d="M20 36C20 33.7909 21.7909 32 24 32H271C273.209 32 275 33.7909 275 36V51H20V36Z" fill="#4B5563"/>
<rect opacity="0.9" x="20" y="51" width="255" height="19" fill="#374151"/>
<rect x="33" y="57" width="53" height="6" rx="1" fill="#D1D5DB"/>
<rect x="240" y="40" width="19" height="3" rx="1" fill="#D1D5DB"/>
<rect x="217" y="40" width="19" height="3" rx="1" fill="#D1D5DB"/>
<rect x="194" y="40" width="19" height="3" rx="1" fill="#D1D5DB"/>
<rect x="171" y="40" width="19" height="3" rx="1" fill="#D1D5DB"/>
<path opacity="0.65" d="M20 70H275V220C275 222.209 273.209 224 271 224H24C21.7909 224 20 222.209 20 220V70Z" fill="#1F2937"/>
<rect opacity="0.5" x="36" y="86" width="223" height="122" rx="2" stroke="#CBD5E1" stroke-dasharray="2 2"/>
<circle cx="38" cy="42" r="5" fill="#D1D5DB"/>
</svg>
